<?xml version="1.0" encoding="utf-8"?>
<!-- Generator: Adobe Illustrator 23.0.3, SVG Export Plug-In . SVG Version: 6.00 Build 0)  -->
<svg version="1.1" id="Layer_1" xmlns="http://www.w3.org/2000/svg" xmlns:xlink="http://www.w3.org/1999/xlink" x="0px" y="0px"
	 viewBox="0 0 1920 3592" style="enable-background:new 0 0 1920 3592;" xml:space="preserve">
<style type="text/css">
	.st0{fill:#00002A;}
	.st1{fill:#FF9F94;}
	.st2{fill:#FFAAB7;}
	.st3{fill:#897FFF;}
	.st4{fill:#FFA89B;}
	.st5{fill:#FFD3B1;}
	.st6{fill:#F0C6FF;}
	.st7{fill:#FFFFFF;}
	.st8{clip-path:url(#SVGID_2_);fill:#00C67A;}
	.st9{clip-path:url(#SVGID_2_);fill:#602AFF;}
	.st10{fill:#9200D4;}
	.st11{clip-path:url(#SVGID_4_);}
	.st12{clip-path:url(#SVGID_6_);}
	.st13{fill:#6000A2;}
	.st14{clip-path:url(#SVGID_8_);}
	.st15{clip-path:url(#SVGID_10_);}
	.st16{clip-path:url(#SVGID_12_);}
	.st17{fill:#1C66FF;}
	.st18{clip-path:url(#SVGID_14_);}
	.st19{fill:#A2003C;}
	.st20{clip-path:url(#SVGID_16_);}
	.st21{fill:#FF2A4C;}
	.st22{clip-path:url(#SVGID_18_);}
	.st23{clip-path:url(#SVGID_20_);}
	.st24{fill:#FF94CF;}
	.st25{fill:#945B00;}
	.st26{clip-path:url(#SVGID_23_);}
	.st27{fill:#FFA838;}
	.st28{clip-path:url(#SVGID_25_);fill:#8B5CFF;}
	.st29{clip-path:url(#SVGID_28_);fill:#7807E8;}
	.st30{clip-path:url(#SVGID_30_);fill:#A999FF;}
	.st31{fill:#6407DB;}
	.st32{clip-path:url(#SVGID_32_);fill:#A999FF;}
	.st33{clip-path:url(#SVGID_34_);fill:#8B5CFF;}
	.st34{clip-path:url(#SVGID_36_);fill:#8B5CFF;}
	.st35{clip-path:url(#SVGID_38_);fill:#7807E8;}
	.st36{clip-path:url(#SVGID_40_);fill:#6407DB;}
	.st37{fill:#FFE7DB;}
	.st38{fill:#FFEBDB;}
	.st39{fill:#F9FFD6;}
	.st40{fill:#FF5565;}
	.st41{fill:none;}
	.st42{clip-path:url(#dark_sky_2_);fill:url(#SVGID_41_);}
</style>
<rect id="dark_sky" x="0" y="-0.5" class="st0" width="1920.1" height="3592.5"/>
<g id="stars">
	<circle class="st1" cx="1632.7" cy="1093.9" r="4.4"/>
	<circle class="st2" cx="1477.2" cy="1252.7" r="4.4"/>
	<circle class="st3" cx="1453.4" cy="902.5" r="4.4"/>
	<circle class="st1" cx="1698.7" cy="881" r="2.2"/>
	<circle class="st4" cx="1788.5" cy="871.9" r="2.2"/>
	<circle class="st5" cx="1415.6" cy="668.7" r="4.4"/>
	<circle class="st3" cx="1797.3" cy="1124.1" r="4.4"/>
	<circle class="st6" cx="1689.3" cy="762.7" r="2.2"/>
	<circle class="st2" cx="1274.1" cy="607.8" r="4.4"/>
	<circle class="st4" cx="1651.4" cy="744.2" r="4.4"/>
	<circle class="st2" cx="1715" cy="519.8" r="4.4"/>
	<circle class="st2" cx="1870.2" cy="633.7" r="4.4"/>
	<circle class="st3" cx="1687.6" cy="233.6" r="4.4"/>
	<circle class="st1" cx="1523" cy="203.4" r="4.4"/>
	<circle class="st5" cx="1193.5" cy="201.9" r="4.4"/>
	<circle class="st6" cx="1464.5" cy="629.3" r="2.2"/>
	<circle class="st2" cx="1560.4" cy="748.3" r="2.2"/>
	<circle class="st3" cx="1223" cy="737.5" r="2.2"/>
	<circle class="st4" cx="1175.6" cy="98.4" r="2.2"/>
	<circle class="st5" cx="1388.5" cy="11.4" r="2.2"/>
	<circle class="st6" cx="1322.9" cy="88" r="2.2"/>
	<circle class="st1" cx="1591.1" cy="193" r="2.2"/>
	<circle class="st4" cx="1508" cy="157.7" r="2.2"/>
	<circle class="st4" cx="1630.3" cy="58.1" r="4.4"/>
	<circle class="st1" cx="1107.8" cy="254.3" r="2.2"/>
	<circle class="st1" cx="1041.5" cy="199.4" r="2.2"/>
	<circle class="st6" cx="989.9" cy="306.3" r="2.2"/>
	<circle class="st6" cx="1675.2" cy="526.4" r="2.2"/>
	<circle class="st2" cx="1648.4" cy="375.9" r="2.2"/>
	<polygon class="st7" points="1766.6,555.2 1769.4,560.9 1775.7,561.9 1771.1,566.3 1772.2,572.6 1766.6,569.6 1760.9,572.6 
		1762,566.3 1757.4,561.9 1763.7,560.9 	"/>
	<polygon class="st7" points="1810.7,289.3 1813.5,295 1819.9,295.9 1815.3,300.4 1816.4,306.7 1810.7,303.7 1805.1,306.7 
		1806.1,300.4 1801.6,295.9 1807.9,295 	"/>
	<polygon class="st7" points="1570.7,588.8 1573.5,594.5 1579.8,595.4 1575.3,599.9 1576.4,606.2 1570.7,603.2 1565.1,606.2 
		1566.1,599.9 1561.6,595.4 1567.9,594.5 	"/>
	<polygon class="st7" points="1186.7,948.6 1189.5,954.3 1195.9,955.3 1191.3,959.7 1192.4,966 1186.7,963 1181.1,966 1182.1,959.7 
		1177.6,955.3 1183.9,954.3 	"/>
	<circle class="st6" cx="1542.4" cy="301.3" r="2.2"/>
	<circle class="st2" cx="1095.5" cy="1289.8" r="3.6"/>
	<circle class="st2" cx="1344.1" cy="1149.8" r="3.6"/>
	<circle class="st4" cx="1013.6" cy="1010.8" r="1.8"/>
	<circle class="st1" cx="1085.4" cy="997.7" r="1.8"/>
	<circle class="st3" cx="1180.6" cy="923.8" r="3.6"/>
	<circle class="st2" cx="1240" cy="683.9" r="3.6"/>
	<circle class="st1" cx="1124.9" cy="821.8" r="3.6"/>
	<circle class="st3" cx="990.2" cy="808.1" r="3.6"/>
	<circle class="st3" cx="827.4" cy="976" r="3.6"/>
	<circle class="st3" cx="946.1" cy="1049.2" r="1.8"/>
	<circle class="st4" cx="1456.2" cy="1554" r="1.8"/>
	<circle class="st5" cx="1290.3" cy="1637.8" r="1.8"/>
	<circle class="st1" cx="1500.8" cy="1424" r="1.8"/>
	<circle class="st6" cx="1592.5" cy="1374.4" r="1.8"/>
	<circle class="st4" cx="1615.2" cy="1216.1" r="1.8"/>
	<polygon class="st7" points="1375.5,25.5 1370.7,29.6 1371.3,36 1365.9,32.7 1360.1,35.2 1361.6,29 1357.3,24.3 1363.6,23.8 
		1366.8,18.3 1369.3,24.2 	"/>
	<polygon class="st7" points="1461.2,231.6 1456.4,235.8 1457,242.1 1451.6,238.8 1445.8,241.4 1447.2,235.2 1443,230.5 1449.3,230 
		1452.5,224.4 1455,230.3 	"/>
	<circle class="st1" cx="310.8" cy="1741" r="4.4"/>
	<path class="st6" d="M133.6,2135.7c-1.1,0.6-2.4,0.3-3-0.8s-0.3-2.4,0.8-3c1.1-0.6,2.4-0.3,3,0.8
		C135,2133.8,134.6,2135.1,133.6,2135.7z"/>
	<circle class="st2" cx="365.5" cy="1525.6" r="4.4"/>
	
		<ellipse transform="matrix(0.8692 -0.4945 0.4945 0.8692 -744.2245 602.978)" class="st3" cx="767.5" cy="1708" rx="4.4" ry="4.4"/>
	<circle class="st1" cx="360.7" cy="1958.3" r="2.2"/>
	<circle class="st4" cx="287.7" cy="2011.3" r="2.2"/>
	
		<ellipse transform="matrix(0.8692 -0.4945 0.4945 0.8692 -815.1502 701.1894)" class="st5" cx="917.7" cy="1891.2" rx="4.4" ry="4.4"/>
	<circle class="st3" cx="153.3" cy="1797.6" r="4.4"/>
	<circle class="st5" cx="100.7" cy="2038.2" r="2.2"/>
	<circle class="st6" cx="428.3" cy="2055.8" r="2.2"/>
	
		<ellipse transform="matrix(0.8692 -0.4945 0.4945 0.8692 -786.0229 774.4062)" class="st2" cx="1070.6" cy="1872.8" rx="4.4" ry="4.4"/>
	<circle class="st4" cx="470.4" cy="2052.8" r="4.4"/>
	<circle class="st2" cx="733.6" cy="2170.4" r="4.4"/>
	<circle class="st2" cx="336.7" cy="2258.3" r="4.4"/>
	
		<ellipse transform="matrix(0.8607 -0.5091 0.5091 0.8607 -1098.3083 793.5098)" class="st3" cx="901.1" cy="2404.1" rx="4.4" ry="4.4"/>
	
		<ellipse transform="matrix(0.8607 -0.5091 0.5091 0.8607 -1047.5674 865.7989)" class="st1" cx="1058.6" cy="2347.5" rx="4.4" ry="4.4"/>
	<circle class="st5" cx="1344.2" cy="2183.2" r="4.4"/>
	<circle class="st6" cx="895.2" cy="1949.8" r="2.2"/>
	<circle class="st2" cx="752.5" cy="1895.1" r="2.2"/>
	<circle class="st3" cx="1049.6" cy="1734.9" r="2.2"/>
	<circle class="st4" cx="1411.7" cy="2263.7" r="2.2"/>
	
		<ellipse transform="matrix(0.8599 -0.5104 0.5104 0.8599 -1070.3616 991.5417)" class="st5" cx="1271.3" cy="2445.9" rx="2.2" ry="2.2"/>
	
		<ellipse transform="matrix(0.8607 -0.5091 0.5091 0.8607 -1015.0098 983.2799)" class="st6" cx="1289.6" cy="2346.7" rx="2.2" ry="2.2"/>
	
		<ellipse transform="matrix(0.8607 -0.5091 0.5091 0.8607 -1077.0353 844.5035)" class="st1" cx="1004.9" cy="2390.7" rx="2.2" ry="2.2"/>
	
		<ellipse transform="matrix(0.8607 -0.5091 0.5091 0.8607 -1058.8411 888.543)" class="st4" cx="1094.5" cy="2379.4" rx="2.2" ry="2.2"/>
	
		<ellipse transform="matrix(0.8596 -0.511 0.511 0.8596 -1145.468 885.7211)" class="st4" cx="1038.8" cy="2527" rx="4.4" ry="4.4"/>
	
		<ellipse transform="matrix(0.8709 -0.4915 0.4915 0.8709 -849.858 954.6138)" class="st1" cx="1392" cy="2094.8" rx="2.2" ry="2.2"/>
	<circle class="st1" cx="1476.9" cy="2109" r="2.2"/>
	
		<ellipse transform="matrix(0.8709 -0.4915 0.4915 0.8709 -788.8585 978.4206)" class="st6" cx="1467.8" cy="1990.6" rx="2.2" ry="2.2"/>
	<circle class="st6" cx="764.7" cy="2144.7" r="2.2"/>
	<circle class="st2" cx="863.5" cy="2261.3" r="2.2"/>
	<polygon class="st7" points="465.7,2274.1 460.4,2270.6 454.5,2272.9 456.3,2266.7 452.1,2261.8 458.5,2261.6 461.9,2256.2 
		464.1,2262.2 470.3,2263.7 465.4,2267.7 	"/>
	<polygon class="st7" points="766.7,2417.8 761.4,2414.2 755.4,2416.7 757.1,2410.5 753,2405.6 759.4,2405.3 762.8,2399.9 
		765.1,2405.8 771.2,2407.5 766.2,2411.4 	"/>
	<polygon class="st7" points="823.7,2038.2 818.4,2034.7 812.5,2037.1 814.1,2030.9 810,2026 816.5,2025.8 819.8,2020.4 
		822.1,2026.3 828.2,2027.9 823.3,2031.9 	"/>
	<polygon class="st7" points="974.9,1534.2 969.6,1530.7 963.6,1533 965.4,1526.9 961.3,1522 967.7,1521.7 971,1516.3 973.3,1522.3 
		979.4,1523.8 974.5,1527.9 	"/>
	<circle class="st6" cx="992.6" cy="2272.6" r="2.2"/>
	
		<ellipse transform="matrix(0.8614 -0.5079 0.5079 0.8614 -483.8546 613.5828)" class="st2" cx="882.3" cy="1193.4" rx="3.6" ry="3.6"/>
	
		<ellipse transform="matrix(0.8614 -0.5079 0.5079 0.8614 -628.8259 574.2257)" class="st2" cx="737.7" cy="1439.3" rx="3.6" ry="3.6"/>
	
		<ellipse transform="matrix(0.8604 -0.5096 0.5096 0.8604 -557.4794 751.6761)" class="st4" cx="1093.3" cy="1393.4" rx="1.8" ry="1.8"/>
	
		<ellipse transform="matrix(0.8614 -0.5079 0.5079 0.8614 -588.0052 726.8674)" class="st1" cx="1037.8" cy="1440.8" rx="1.8" ry="1.8"/>
	
		<ellipse transform="matrix(0.8614 -0.5079 0.5079 0.8614 -651.018 719.4047)" class="st3" cx="992.7" cy="1552.6" rx="3.6" ry="3.6"/>
	
		<ellipse transform="matrix(0.8614 -0.5079 0.5079 0.8614 -761.9452 787.4295)" class="st2" cx="1061.8" cy="1789.8" rx="3.6" ry="3.6"/>
	
		<ellipse transform="matrix(0.8614 -0.5079 0.5079 0.8614 -667.8193 778.2424)" class="st1" cx="1092.1" cy="1612.8" rx="3.6" ry="3.6"/>
	
		<ellipse transform="matrix(0.8607 -0.5091 0.5091 0.8607 -623.3361 835.6331)" class="st3" cx="1215.4" cy="1556.9" rx="3.6" ry="3.6"/>
	
		<ellipse transform="matrix(0.8614 -0.5079 0.5079 0.8614 -499.2607 830.3436)" class="st3" cx="1271.8" cy="1330" rx="3.6" ry="3.6"/>
	
		<ellipse transform="matrix(0.8657 -0.5005 0.5005 0.8657 -511.8147 744.9348)" class="st3" cx="1132.4" cy="1326.3" rx="1.8" ry="1.8"/>
	
		<ellipse transform="matrix(0.8655 -0.5009 0.5009 0.8655 -515.2759 373.4577)" class="st4" cx="437.7" cy="1146.2" rx="1.8" ry="1.8"/>
	
		<ellipse transform="matrix(0.8655 -0.5009 0.5009 0.8655 -423.5933 403.2607)" class="st5" cx="539.1" cy="990.4" rx="1.8" ry="1.8"/>
	
		<ellipse transform="matrix(0.8655 -0.5009 0.5009 0.8655 -579.2076 404.9951)" class="st1" cx="464.5" cy="1281" rx="1.8" ry="1.8"/>
	
		<ellipse transform="matrix(0.8655 -0.5009 0.5009 0.8655 -631.0835 389.7287)" class="st6" cx="410.1" cy="1369.9" rx="1.8" ry="1.8"/>
	
		<ellipse transform="matrix(0.865 -0.5017 0.5017 0.865 -780.4229 352.3114)" class="st4" cx="264.6" cy="1626.6" rx="1.8" ry="1.8"/>
	<polygon class="st7" points="1275.5,2427.2 1277.6,2421.2 1273.8,2416 1280.2,2416.1 1283.9,2411 1285.8,2417.2 1291.8,2419.1 
		1286.6,2422.7 1286.6,2429 1281.5,2425.2 	"/>
	<polygon class="st7" points="1097.8,2292 1099.9,2286 1096.2,2280.8 1102.5,2281 1106.2,2275.8 1108.1,2281.9 1114.1,2283.8 
		1108.9,2287.4 1109,2293.9 1103.9,2290 	"/>
	<circle class="st1" cx="709.8" cy="81.4" r="2.2"/>
	<circle class="st4" cx="659.8" cy="6.2" r="2.2"/>
	
		<ellipse transform="matrix(0.893 -0.4501 0.4501 0.893 -123.9047 340.5013)" class="st5" cx="654.1" cy="430.8" rx="4.4" ry="4.4"/>
	<circle class="st6" cx="609.5" cy="144.9" r="2.2"/>
	
		<ellipse transform="matrix(0.893 -0.4501 0.4501 0.893 -191.7188 362.4114)" class="st2" cx="666.3" cy="584.4" rx="4.4" ry="4.4"/>
	<circle class="st4" cx="610.9" cy="187" r="4.4"/>
	<circle class="st2" cx="382.7" cy="235.5" r="4.4"/>
	<circle class="st2" cx="411" cy="45.1" r="4.4"/>
	
		<ellipse transform="matrix(0.8777 -0.4792 0.4792 0.8777 -171.0605 116.3258)" class="st3" cx="142.4" cy="393.3" rx="4.4" ry="4.4"/>
	
		<ellipse transform="matrix(0.8777 -0.4792 0.4792 0.8777 -241.4496 159.8632)" class="st1" cx="192.5" cy="553" rx="4.4" ry="4.4"/>
	<circle class="st5" cx="344.9" cy="845.1" r="4.4"/>
	<circle class="st6" cx="596.5" cy="406" r="2.2"/>
	<circle class="st2" cx="656.9" cy="265.6" r="2.2"/>
	<circle class="st4" cx="261.7" cy="909.2" r="2.2"/>
	
		<ellipse transform="matrix(0.8763 -0.4817 0.4817 0.8763 -356.2516 135.3148)" class="st5" cx="85.4" cy="761.5" rx="2.2" ry="2.2"/>
	
		<ellipse transform="matrix(0.8777 -0.4792 0.4792 0.8777 -353.1278 183.9313)" class="st6" cx="183.8" cy="783.8" rx="2.2" ry="2.2"/>
	
		<ellipse transform="matrix(0.8777 -0.4792 0.4792 0.8777 -219.9239 133.4536)" class="st1" cx="151.5" cy="497.6" rx="2.2" ry="2.2"/>
	
		<ellipse transform="matrix(0.8777 -0.4792 0.4792 0.8777 -262.1141 148.0791)" class="st4" cx="159.1" cy="587.6" rx="2.2" ry="2.2"/>
	
		<ellipse transform="matrix(0.8758 -0.4827 0.4827 0.8758 -252.1352 72.0384)" class="st4" cx="13.9" cy="525.9" rx="4.4" ry="4.4"/>
	
		<ellipse transform="matrix(0.8964 -0.4433 0.4433 0.8964 -352.7031 284.0686)" class="st1" cx="431.2" cy="896.4" rx="2.2" ry="2.2"/>
	<circle class="st1" cx="413.6" cy="980.7" r="2.2"/>
	
		<ellipse transform="matrix(0.8964 -0.4433 0.4433 0.8964 -377.7041 337.138)" class="st6" cx="532.3" cy="976.4" rx="2.2" ry="2.2"/>
	<circle class="st6" cx="407.1" cy="267.6" r="2.2"/>
	<circle class="st2" cx="286.5" cy="361.6" r="2.2"/>
	<polygon class="st7" points="389.9,173.3 393.7,168.2 391.6,162.2 397.7,164.2 402.7,160.3 402.7,166.6 408,170.3 401.9,172.2 
		400.2,178.4 396.3,173.3 	"/>
	<polygon class="st7" points="134.2,258.4 137.9,253.3 135.7,247.2 141.9,249.2 146.9,245.3 146.9,251.7 152.2,255.3 146.2,257.3 
		144.3,263.4 140.5,258.2 	"/>
	<polygon class="st7" points="511.1,330.9 514.8,325.8 512.7,319.8 518.7,321.7 523.8,317.8 523.8,324.2 529.1,327.8 523,329.8 
		521.2,335.9 517.4,330.7 	"/>
	<circle class="st6" cx="270" cy="490.1" r="2.2"/>
	
		<ellipse transform="matrix(0.8788 -0.4772 0.4772 0.8788 -185.4651 427.8077)" class="st2" cx="749.5" cy="579" rx="3.6" ry="3.6"/>
	<polygon class="st7" points="104,766.4 109.8,768.8 115.2,765.3 114.8,771.6 119.7,775.5 113.5,777.1 111.4,783.1 108,777.8 
		101.7,777.5 105.7,772.5 	"/>
	<polygon class="st7" points="246.3,594.5 252.2,596.8 257.5,593.3 257.1,599.6 262.1,603.5 256,605.2 253.8,611.1 250.4,605.7 
		243.9,605.5 248,600.6 	"/>
	<path class="st6" d="M1844.6,2386.2c-0.8-0.9-0.6-2.3,0.3-3.1c0.9-0.8,2.3-0.6,3.1,0.3c0.8,0.9,0.6,2.3-0.3,3.1
		C1846.7,2387.3,1845.4,2387.1,1844.6,2386.2z"/>
	<circle class="st1" cx="1600.4" cy="2534.7" r="2.2"/>
	<circle class="st4" cx="1676.1" cy="2485.6" r="2.2"/>
	<circle class="st5" cx="1768.5" cy="2320.8" r="2.2"/>
	<circle class="st6" cx="1667.1" cy="2632.8" r="2.2"/>
	<circle class="st4" cx="1649.1" cy="2671" r="4.4"/>
	<circle class="st2" cx="1888.9" cy="2620.2" r="4.4"/>
	<circle class="st2" cx="1400.6" cy="2877.5" r="2.2"/>
	<polygon class="st7" points="1851.4,2743.6 1845.9,2746.8 1846.7,2740.5 1841.9,2736.2 1848.3,2735 1850.7,2729.2 1853.8,2734.8 
		1860.2,2735.3 1855.9,2740 1857.3,2746.2 	"/>
	<path class="st6" d="M1067,2912.1c1.1-0.6,2.4-0.2,3,0.9s0.2,2.4-0.9,3c-1.1,0.6-2.4,0.2-3-0.9
		C1065.5,2914.1,1065.9,2912.7,1067,2912.1z"/>
	<circle class="st2" cx="468.2" cy="2860.3" r="4.4"/>
	<circle class="st2" cx="867.5" cy="2783.8" r="4.4"/>
	
		<ellipse transform="matrix(0.8773 -0.48 0.48 0.8773 -1220.6653 469.3152)" class="st3" cx="307.5" cy="2621.9" rx="4.4" ry="4.4"/>
	
		<ellipse transform="matrix(0.8773 -0.48 0.48 0.8773 -1265.1606 399.3641)" class="st1" cx="148.4" cy="2673.9" rx="4.4" ry="4.4"/>
	
		<ellipse transform="matrix(0.8773 -0.48 0.48 0.8773 -1238.4376 420.5908)" class="st1" cx="203.3" cy="2632.3" rx="2.2" ry="2.2"/>
	
		<ellipse transform="matrix(0.8773 -0.48 0.48 0.8773 -1253.6191 378.5182)" class="st4" cx="113.4" cy="2640.9" rx="2.2" ry="2.2"/>
	
		<ellipse transform="matrix(0.8769 -0.4807 0.4807 0.8769 -1178.0315 390.5208)" class="st4" cx="173.4" cy="2495" rx="4.4" ry="4.4"/>
	<circle class="st6" cx="436.4" cy="2885.1" r="2.2"/>
	<circle class="st2" cx="341" cy="2765.6" r="2.2"/>
	<polygon class="st7" points="738.9,2764.3 744.1,2768 750.1,2765.9 748.2,2771.9 752.2,2776.9 745.8,2777 742.2,2782.3 
		740.2,2776.3 734.1,2774.6 739.1,2770.7 	"/>
	<polygon class="st7" points="442.3,2612.1 447.4,2615.7 453.5,2613.5 451.6,2619.6 455.6,2624.6 449.1,2624.7 445.6,2630 
		443.5,2624 437.4,2622.2 442.5,2618.4 	"/>
	<circle class="st6" cx="212.2" cy="2750.7" r="2.2"/>
	<polygon class="st7" points="107.6,2728.2 105.4,2734.2 108.9,2739.4 102.6,2739.1 98.8,2744.2 97,2738.1 91.1,2735.9 96.4,2732.5 
		96.5,2726 101.5,2730 	"/>
	
		<ellipse transform="matrix(0.5239 -0.8518 0.8518 0.5239 -2040.1963 1877.4594)" class="st2" cx="659.4" cy="2763.8" rx="4.4" ry="4.4"/>
	
		<ellipse transform="matrix(0.1034 -0.9946 0.9946 0.1034 -1651.8785 3056.844)" class="st2" cx="869.5" cy="2444.6" rx="3.6" ry="3.6"/>
	
		<ellipse transform="matrix(0.3087 -0.9511 0.9511 0.3087 -2008.7928 2114.1799)" class="st4" cx="450.1" cy="2439.1" rx="1.8" ry="1.8"/>
	
		<ellipse transform="matrix(0.3087 -0.9511 0.9511 0.3087 -2006.4929 2275.7644)" class="st1" cx="562.4" cy="2518.3" rx="1.8" ry="1.8"/>
	
		<ellipse transform="matrix(0.3087 -0.9511 0.9511 0.3087 -2088.2625 2367.0906)" class="st6" cx="584.4" cy="2620.2" rx="1.8" ry="1.8"/>
	<circle class="st5" cx="1887.5" cy="1575.2" r="4.4"/>
	<circle class="st2" cx="1746" cy="1514.3" r="4.4"/>
	<circle class="st3" cx="1694.9" cy="1644" r="2.2"/>
	<polygon class="st7" points="1658.6,1855.1 1661.4,1860.8 1667.8,1861.8 1663.2,1866.2 1664.3,1872.5 1658.6,1869.5 1653,1872.5 
		1654,1866.2 1649.5,1861.8 1655.8,1860.8 	"/>
	<circle class="st1" cx="1557.3" cy="1904.2" r="1.8"/>
	<circle class="st3" cx="1652.5" cy="1830.3" r="3.6"/>
	<circle class="st2" cx="1711.9" cy="1590.4" r="3.6"/>
	<circle class="st1" cx="1596.8" cy="1728.3" r="3.6"/>
	<circle class="st3" cx="1462.1" cy="1714.6" r="3.6"/>
</g>
<g id="Layer_3">
</g>
<g id="earth">
	<g>
		<defs>
			
				<ellipse id="SVGID_1_" transform="matrix(0.7071 -0.7071 0.7071 0.7071 -73.6718 1296.0325)" cx="1527.6" cy="736.9" rx="170.4" ry="170.4"/>
		</defs>
		<clipPath id="SVGID_2_">
			<use xlink:href="#SVGID_1_"  style="overflow:visible;"/>
		</clipPath>
		<path class="st8" d="M1735.7,768.3l2.8-12c2.2-9.6,11.9-15.5,21.5-13.3l12.4,2.9c9.6,2.2,19.2-3.7,21.5-13.3l2.8-12
			c2.2-9.6-3.7-19.2-13.3-21.5l-83.7-19.7c-9.6-2.2-15.5-11.9-13.3-21.5l2.8-12c2.2-9.6,11.9-15.5,21.5-13.3l36.6,8.6
			c9.6,2.2,19.2-3.7,21.5-13.3l2.8-12c2.2-9.6-3.7-19.2-13.3-21.5l-279.5-65.8c-9.6-2.2-19.2,3.7-21.5,13.3l-2.8,12
			c-2.2,9.6,3.7,19.2,13.3,21.5l34.3,8.1c9.6,2.2,15.5,11.9,13.3,21.5l-2.8,12c-2.2,9.6-11.9,15.5-21.5,13.3l-3-0.7
			c-9.6-2.2-19.2,3.7-21.5,13.3l-2.8,12c-2.2,9.6,3.7,19.2,13.3,21.5l60.9,14.3c9.6,2.2,15.5,11.9,13.3,21.5l-2.8,12
			c-2.2,9.6-11.9,15.5-21.5,13.3l-33.1-7.8c-9.6-2.2-19.2,3.7-21.5,13.3l-2.8,12c-2.2,9.6-11.9,15.5-21.5,13.3l-24.4-5.8
			c-9.6-2.2-19.2,3.7-21.5,13.3l-2.8,12c-2.2,9.6-11.9,15.5-21.5,13.3l-2.9-0.7c-9.6-2.2-19.2,3.7-21.5,13.3l-2.8,12
			c-2.2,9.6,3.7,19.2,13.3,21.5l37,8.7c9.6,2.2,15.5,11.9,13.3,21.5l-2.7,11.4c-2.2,9.6,3.7,19.2,13.3,21.5l245.5,57.8
			c9.6,2.2,19.2-3.7,21.5-13.3l2.8-12c2.2-9.6-3.7-19.2-13.3-21.5l-43.9-10.3c-9.6-2.2-15.5-11.9-13.3-21.5l2.7-11.4
			c2.2-9.6,11.9-15.5,21.5-13.3l71.5,16.8c9.6,2.2,19.2-3.7,21.5-13.3l2.8-12c2.2-9.6-3.7-19.2-13.3-21.5l-27.6-6.5
			c-9.6-2.2-15.5-11.9-13.3-21.5l2.8-12c2.2-9.6,11.9-15.5,21.5-13.3l0,0C1723.8,783.9,1733.4,777.9,1735.7,768.3z"/>
		<path class="st9" d="M1703.2,746.2l2.8-12c2.2-9.6,11.9-15.5,21.5-13.3l12.4,2.9c9.6,2.2,19.2-3.7,21.5-13.3l2.8-12
			c2.2-9.6-3.7-19.2-13.3-21.5l-83.6-19.7c-9.6-2.2-15.5-11.9-13.3-21.5l2.8-12c2.2-9.6,11.9-15.5,21.5-13.3l36.6,8.6
			c9.6,2.2,19.2-3.7,21.5-13.3l2.8-12c2.2-9.6-3.7-19.2-13.3-21.5l-279.5-65.8c-9.6-2.2-19.2,3.7-21.5,13.3l-2.8,12
			c-2.2,9.6,3.7,19.2,13.3,21.5l34.3,8.1c9.6,2.2,15.5,11.9,13.3,21.5l-2.8,12c-2.2,9.6-11.9,15.5-21.5,13.3l-3-0.7
			c-9.6-2.2-19.2,3.7-21.5,13.3l-2.8,12c-2.2,9.6,3.7,19.2,13.3,21.5l60.9,14.3c9.6,2.2,15.5,11.9,13.3,21.5l-2.8,12
			c-2.2,9.6-11.9,15.5-21.5,13.3l-33.1-7.8c-9.6-2.2-19.2,3.7-21.5,13.3l-2.8,12c-2.2,9.6-11.9,15.5-21.5,13.3l-24.4-5.8
			c-9.6-2.2-19.2,3.7-21.5,13.3l-2.8,12c-2.2,9.6-11.9,15.5-21.5,13.3l-2.9-0.7c-9.6-2.2-19.2,3.7-21.5,13.3l-2.8,12
			c-2.2,9.6,3.7,19.2,13.3,21.5l37,8.7c9.6,2.2,15.5,11.9,13.3,21.5l-2.7,11.4c-2.2,9.6,3.7,19.2,13.3,21.5l245.5,57.8
			c9.6,2.2,19.2-3.7,21.5-13.3l2.8-12c2.2-9.6-3.7-19.2-13.3-21.5l-43.9-10.3c-9.6-2.2-15.5-11.9-13.3-21.5l2.7-11.4
			c2.2-9.6,11.9-15.5,21.5-13.3l71.5,16.8c9.6,2.2,19.2-3.7,21.5-13.3l2.8-12c2.2-9.6-3.7-19.2-13.3-21.5l-27.6-6.5
			c-9.6-2.2-15.5-11.9-13.3-21.5l2.8-12c2.2-9.6,11.9-15.5,21.5-13.3l0,0C1691.4,761.7,1701,755.8,1703.2,746.2z"/>
		<path class="st8" d="M1478.6,438.3l82.7,19.6c9.6,2.2,15.5,11.9,13.3,21.5l-2.8,12c-2.2,9.6-11.9,15.5-21.5,13.3l-43.9-10.3
			c-9.6-2.2-19.2,3.7-21.5,13.3l-2.7,11.4c-2.2,9.6,3.7,19.2,13.3,21.5l71.5,16.8c9.6,2.2,15.5,11.9,13.3,21.5l-2.8,12
			c-2.2,9.6-11.9,15.5-21.5,13.3l-27.6-6.5c-9.6-2.2-19.2,3.7-21.5,13.3l-2.8,12c-2.2,9.6,3.7,19.2,13.3,21.5l0,0
			c9.6,2,15.6,11.7,13.3,21.3l-2.8,12c-2.2,9.6,3.7,19.2,13.3,21.5l12.4,2.9c9.6,2.2,15.5,11.9,13.3,21.5l-2.8,12
			c-2.2,9.6-11.9,15.5-21.5,13.3l-83.7-19.8c-9.6-2.2-19.2,3.7-21.5,13.3l-2.8,12c-2.2,9.6,3.7,19.2,13.3,21.5l36.6,8.6
			c9.6,2.2,15.5,11.9,13.3,21.5l-2.8,12c-2.2,9.6-11.9,15.5-21.5,13.3l-211.6-49.8L1478.6,438.3z"/>
		<path class="st9" d="M1382.3,473.7l-120.8,236l145.9,34.4c6.5,1.5,12.8-2.5,14.4-8.9l1.9-8.1c1.5-6.5-2.5-12.8-8.9-14.4l-29.4-6.9
			c-6.5-1.5-10.4-7.9-8.9-14.4l1.8-7.7c1.5-6.5,7.9-10.4,14.4-8.9l47.9,11.3c6.5,1.5,12.8-2.5,14.4-8.9l1.9-8.1
			c1.5-6.5-2.5-12.8-8.9-14.4l-18.5-4.4c-6.5-1.5-10.4-7.9-8.9-14.4l1.9-8.1c1.5-6.5,7.9-10.4,14.4-8.9l0,0
			c6.5,1.5,12.9-2.5,14.4-8.8l1.9-8.1c1.5-6.5,7.9-10.4,14.4-8.9l8.3,2c6.5,1.5,12.8-2.5,14.4-8.9l1.9-8.1
			c1.5-6.5-2.5-12.8-8.9-14.4l-56.2-13.2c-6.5-1.5-10.4-7.9-8.9-14.4l1.9-8.1c1.5-6.5,7.9-10.4,14.4-8.9l24.6,5.8
			c6.5,1.5,12.8-2.5,14.4-8.9l1.9-8.1c1.5-6.5-2.5-12.8-8.9-14.4L1382.3,473.7"/>
		<path class="st8" d="M1692.8,793.9L1628,975.5l-33.1-7.8c-9.6-2.2-15.5-11.9-13.3-21.5l2.8-12c2.2-9.6-3.7-19.2-13.3-21.5
			l-24.4-5.8c-9.6-2.2-15.5-11.9-13.3-21.5l2.8-12c2.2-9.6-3.7-19.2-13.3-21.5l-2.9-0.7c-9.6-2.2-15.5-11.9-13.3-21.5l2.8-12
			c2.2-9.6,11.9-15.5,21.5-13.3l37,8.7c9.6,2.2,19.2-3.7,21.5-13.3l2.7-11.4c2.2-9.6,11.9-15.5,21.5-13.3L1692.8,793.9"/>
	</g>
	<path class="st7" d="M1716.6,766.7L1573.5,733c-11.4-2.7-18.4-14-15.7-25.4l0,0c2.7-11.4,14-18.4,25.4-15.7l143.1,33.8
		c11.4,2.7,18.4,14,15.7,25.4l0,0C1739.3,762.4,1727.9,769.4,1716.6,766.7z"/>
	<path class="st7" d="M1453,793.8l-20.1-4.7c-11.4-2.7-18.4-14-15.7-25.4l0,0c2.7-11.4,14-18.4,25.4-15.7l20.1,4.7
		c11.4,2.7,18.4,14,15.7,25.4l0,0C1475.7,789.4,1464.4,796.5,1453,793.8z"/>
	<path class="st7" d="M1466.1,685.2l1.1-4.5c1.7-7.1-2.7-14.2-9.8-15.9l-84.7-19.9c-7.1-1.7-14.2,2.7-15.9,9.8l-1.1,4.5
		c-1.7,7.1-8.8,11.4-15.9,9.8l0,0c-7.1-1.7-14.2,2.7-15.9,9.8l-1.5,6.7c-1.7,7.1,2.7,14.2,9.8,15.9l155.7,36.7
		c7.1,1.7,14.2-2.7,15.9-9.8l1.5-6.7c1.7-7.1-2.7-14.2-9.8-15.9l-19.7-4.6C1468.8,699.3,1464.4,692.3,1466.1,685.2z"/>
	<path class="st7" d="M1640.8,869.1l0.9-3.8c1-4.3,5.3-6.9,9.5-5.9l0,0c4.3,1,8.5-1.6,9.5-5.9l1.5-6.5c1-4.3-1.6-8.5-5.9-9.5
		l-7.1-1.7c-4.3-1-6.9-5.3-5.9-9.5l1.2-5c1-4.3-1.6-8.5-5.9-9.5l-55.4-13.1c-4.3-1-8.5,1.6-9.5,5.9l-1.5,6.5c-1,4.3,1.6,8.5,5.9,9.5
		l7.7,1.8c4.3,1,6.9,5.3,5.9,9.5l-0.9,3.8c-1,4.3-5.3,6.9-9.5,5.9l-13.6-3.2c-4.3-1-8.5,1.6-9.5,5.9l-1.2,5c-1,4.3-5.3,6.9-9.5,5.9
		l-77.6-18.3c-4.3-1-8.5,1.6-9.5,5.9l-1.5,6.5c-1,4.3,1.6,8.5,5.9,9.5l209.3,49.3c4.3,1,8.5-1.6,9.5-5.9l1.5-6.5
		c1-4.3-1.6-8.5-5.9-9.5l-32.5-7.7C1642.5,877.6,1639.8,873.4,1640.8,869.1z"/>
	<path class="st7" d="M1680.6,640.6l0.6-2.5c0.6-2.7,3.4-4.5,6.2-3.9l0,0c2.7,0.6,5.5-1.1,6.2-3.9l1-4.2c0.6-2.7-1.1-5.5-3.9-6.2
		l-4.6-1.1c-2.7-0.6-4.5-3.4-3.9-6.2l0.8-3.2c0.6-2.7-1.1-5.5-3.9-6.2l-36-8.5c-2.7-0.6-5.5,1.1-6.2,3.9l-0.8,3.2
		c-0.6,2.7-3.4,4.5-6.2,3.9l-6.5-1.5c-2.7-0.6-5.5,1.1-6.2,3.9l-0.8,3.4c-0.6,2.7-3.4,4.5-6.2,3.9l-3.9-0.9
		c-2.7-0.6-5.5,1.1-6.2,3.9l-0.8,3.2c-0.6,2.7-3.4,4.5-6.2,3.9l-5.3-1.3c-2.7-0.6-5.5,1.1-6.2,3.9l-1,4.2c-0.6,2.7,1.1,5.5,3.9,6.2
		l117.6,27.7c2.7,0.6,5.5-1.1,6.2-3.9l1-4.2c0.6-2.7-1.1-5.5-3.9-6.2l-21.1-5C1681.7,646.1,1679.9,643.3,1680.6,640.6z"/>
	<path class="st7" d="M1551,616.5l-10.9-2.5c-6.1-1.5-10-7.6-8.5-13.8l0,0c1.5-6.1,7.6-10,13.8-8.5l10.9,2.5
		c6.1,1.5,10,7.6,8.5,13.8l0,0C1563.3,614.2,1557.2,618,1551,616.5z"/>
</g>
<g id="planet_1">
	<g>
		<ellipse id="SVGID_22_" class="st10" cx="207.7" cy="218.6" rx="70.9" ry="70.9"/>
	</g>
	<g>
		<defs>
			<circle id="SVGID_3_" cx="207.7" cy="218.6" r="70.9"/>
		</defs>
		<clipPath id="SVGID_4_">
			<use xlink:href="#SVGID_3_"  style="overflow:visible;"/>
		</clipPath>
		<g class="st11">
			<path class="st10" d="M304.6,265.3l2.3-4.6c1.9-3.6,6.4-5.1,10-3.1l4.7,2.4c3.6,1.9,8.1,0.5,10-3.1l2.3-4.6
				c1.9-3.6,0.5-8.1-3.1-10l-31.7-16.5c-3.6-1.9-5.1-6.4-3.1-10l2.3-4.6c1.9-3.6,6.4-5.1,10-3.1l13.9,7.2c3.6,1.9,8.1,0.5,10-3.1
				l2.3-4.6c1.9-3.6,0.5-8.1-3.1-10l-106-55c-3.6-1.9-8.1-0.5-10,3.1l-2.3,4.6c-1.9,3.6-0.5,8.1,3.1,10l13,6.8
				c3.6,1.9,5.1,6.4,3.1,10l-2.3,4.6c-1.9,3.6-6.4,5.1-10,3.1l-1.1-0.6c-3.6-1.9-8.1-0.5-10,3.1l-2.3,4.6c-1.9,3.6-0.5,8.1,3.1,10
				l23.1,12c3.6,1.9,5.1,6.4,3.1,10l-2.3,4.6c-1.9,3.6-6.4,5.1-10,3.1l-12.6-6.5c-3.6-1.9-8.1-0.5-10,3.1l-2.3,4.6
				c-1.9,3.6-6.4,5.1-10,3.1l-9.3-4.8c-3.6-1.9-8.1-0.5-10,3.1l-2.3,4.6c-1.9,3.6-6.4,5.1-10,3.1l-1.1-0.6c-3.6-1.9-8.1-0.5-10,3.1
				l-2.3,4.6c-1.9,3.6-0.5,8.1,3.1,10l14,7.2c3.6,1.9,5.1,6.4,3.1,10l-2.3,4.3c-1.9,3.6-0.5,8.1,3.1,10l93.2,48.3
				c3.6,1.9,8.1,0.5,10-3.1l2.3-4.6c1.9-3.6,0.5-8.1-3.1-10l-16.8-8.4c-3.6-1.9-5.1-6.4-3.1-10l2.3-4.3c1.9-3.6,6.4-5.1,10-3.1
				l27.1,14.1c3.6,1.9,8.1,0.5,10-3.1l2.3-4.6c1.9-3.6,0.5-8.1-3.1-10l-10.5-5.5c-3.6-1.9-5.1-6.4-3.1-10l2.3-4.6
				c1.9-3.6,6.4-5.1,10-3.1l0,0C298.3,270.3,302.8,269,304.6,265.3z"/>
		</g>
	</g>
	<g>
		<defs>
			<circle id="SVGID_5_" cx="207.7" cy="218.6" r="70.9"/>
		</defs>
		<clipPath id="SVGID_6_">
			<use xlink:href="#SVGID_5_"  style="overflow:visible;"/>
		</clipPath>
		<g class="st12">
			<path class="st13" d="M268.9,242l2.3-4.6c1.9-3.6,6.4-5.1,10-3.1l4.7,2.4c3.6,1.9,8.1,0.5,10-3.1l2.3-4.6c1.9-3.6,0.5-8.1-3.1-10
				l-31.7-16.5c-3.6-1.9-5.1-6.4-3.1-10l2.3-4.6c1.9-3.6,6.4-5.1,10-3.1l13.9,7.2c3.6,1.9,8.1,0.5,10-3.1l2.3-4.6
				c1.9-3.6,0.5-8.1-3.1-10l-106-55c-3.6-1.9-8.1-0.5-10,3.1l-2.3,4.6c-1.9,3.6-0.5,8.1,3.1,10l13,6.8c3.6,1.9,5.1,6.4,3.1,10
				l-2.3,4.6c-1.9,3.6-6.4,5.1-10,3.1l-1.1-0.6c-3.6-1.9-8.1-0.5-10,3.1l-2.3,4.6c-1.9,3.6-0.5,8.1,3.1,10l23.1,12
				c3.6,1.9,5.1,6.4,3.1,10l-2.3,4.6c-1.9,3.6-6.4,5.1-10,3.1l-12.6-6.4c-3.6-1.9-8.1-0.5-10,3.1l-2.3,4.6c-1.9,3.6-6.4,5.1-10,3.1
				l-9.3-4.8c-3.6-1.9-8.1-0.5-10,3.1l-2.3,4.6c-1.9,3.6-6.4,5.1-10,3.1l-1.1-0.6c-3.6-1.9-8.1-0.5-10,3.1l-2.3,4.6
				c-1.9,3.6-0.5,8.1,3.1,10l14,7.2c3.6,1.9,5.1,6.4,3.1,10l-2.3,4.3c-1.9,3.6-0.5,8.1,3.1,10l93.2,48.3c3.6,1.9,8.1,0.5,10-3.1
				l2.3-4.6c1.9-3.6,0.5-8.1-3.1-10l-16.7-8.4c-3.6-1.9-5.1-6.4-3.1-10l2.3-4.3c1.9-3.6,6.4-5.1,10-3.1l27.1,14.1
				c3.6,1.9,8.1,0.5,10-3.1l2.3-4.6c1.9-3.6,0.5-8.1-3.1-10l-10.5-5.5c-3.6-1.9-5.1-6.4-3.1-10l2.3-4.6c1.9-3.6,6.4-5.1,10-3.1l0,0
				C262.5,247.1,267,245.6,268.9,242z"/>
		</g>
	</g>
	<g>
		<defs>
			<circle id="SVGID_7_" cx="207.7" cy="218.6" r="70.9"/>
		</defs>
		<clipPath id="SVGID_8_">
			<use xlink:href="#SVGID_7_"  style="overflow:visible;"/>
		</clipPath>
		<g class="st14">
			<path class="st10" d="M209,227.4l-2.3,4.6c-1.9,3.6-0.5,8.1,3.1,10l4.7,2.4c3.6,1.9,5.1,6.4,3.1,10l-2.3,4.6
				c-1.9,3.6-6.4,5.1-10,3.1l-31.7-16.5c-3.6-1.9-8.1-0.5-10,3.1l-2.3,4.6c-1.9,3.6-0.5,8.1,3.1,10l13.9,7.2c3.6,1.9,5.1,6.4,3.1,10
				l-2.3,4.6c-1.9,3.6-6.4,5.1-10,3.1L63,233.3c-3.6-1.9-5.1-6.4-3.1-10l2.3-4.6c1.9-3.6,6.4-5.1,10-3.1l13,6.8
				c3.6,1.9,8.1,0.5,10-3.1l2.3-4.6c1.9-3.6,0.5-8.1-3.1-10l-1.1-0.6c-3.6-1.9-5.1-6.4-3.1-10l2.3-4.6c1.9-3.6,6.4-5.1,10-3.1
				l23.1,12c3.6,1.9,8.1,0.5,10-3.1l2.3-4.6c1.9-3.6,0.5-8.1-3.1-10l-12.5-6.7c-3.6-1.9-5.1-6.4-3.1-10l2.3-4.6
				c1.9-3.6,0.5-8.1-3.1-10l-9.3-4.8c-3.6-1.9-5.1-6.4-3.1-10l2.3-4.6c1.9-3.6,0.5-8.1-3.1-10l-1.1-0.6c-3.6-1.9-5.1-6.4-3.1-10
				l2.3-4.6c1.9-3.6,6.4-5.1,10-3.1l14,7.2c3.6,1.9,8.1,0.5,10-3.1l2.3-4.3c1.9-3.6,6.4-5.1,10-3.1l93.2,48.3
				c3.6,1.9,5.1,6.4,3.1,10l-2.3,4.6c-1.9,3.6-6.4,5.1-10,3.1l-16.7-8.6c-3.6-1.9-8.1-0.5-10,3.1l-2.3,4.3c-1.9,3.6-0.5,8.1,3.1,10
				l27.1,14.1c3.6,1.9,5.1,6.4,3.1,10l-2.3,4.6c-1.9,3.6-6.4,5.1-10,3.1l-10.5-5.5c-3.6-1.9-8.1-0.5-10,3.1l-2.3,4.6
				c-1.9,3.6-0.5,8.1,3.1,10l0,0C209.5,219.2,210.9,223.7,209,227.4z"/>
		</g>
	</g>
	<g>
		<defs>
			<circle id="SVGID_9_" cx="207.7" cy="218.6" r="70.9"/>
		</defs>
		<clipPath id="SVGID_10_">
			<use xlink:href="#SVGID_9_"  style="overflow:visible;"/>
		</clipPath>
		<g class="st15">
			<path class="st13" d="M170.4,194.2l2.3-4.6c1.9-3.6,6.4-5.1,10-3.1l4.7,2.4c3.6,1.9,8.1,0.5,10-3.1l2.3-4.6
				c1.9-3.6,0.5-8.1-3.1-10l-31.7-16.5c-3.6-1.9-5.1-6.4-3.1-10l2.3-4.6c1.9-3.6,6.4-5.1,10-3.1l13.9,7.2c3.6,1.9,8.1,0.5,10-3.1
				l2.3-4.6c1.9-3.6,0.5-8.1-3.1-10l-106.1-55c-3.6-1.9-8.1-0.5-10,3.1l-2.3,4.6c-1.9,3.6-0.5,8.1,3.1,10l13,6.8
				c3.6,1.9,5.1,6.4,3.1,10l-2.3,4.6c-1.9,3.6-6.4,5.1-10,3.1l-1.1-0.6c-3.6-1.9-8.1-0.5-10,3.1l-2.3,4.6c-1.9,3.6-0.5,8.1,3.1,10
				l23.1,12c3.6,1.9,5.1,6.4,3.1,10l-2.3,4.6c-1.9,3.6-6.4,5.1-10,3.1l-12.6-6.5c-3.7-1.8-8.2-0.4-10.1,3.3l-2.3,4.6
				c-1.9,3.6-6.4,5.1-10,3.1l-9.3-4.8c-3.6-1.9-8.1-0.5-10,3.1l-2.3,4.6c-1.9,3.6-6.4,5.1-10,3.1l-1.3-0.6c-3.6-1.9-8.1-0.5-10,3.1
				l-2.3,4.6c-1.9,3.6-0.5,8.1,3.1,10l14,7.2c3.6,1.9,5.1,6.4,3.1,10l-2.3,4.3c-1.9,3.6-0.5,8.1,3.1,10l93.2,48.3
				c3.6,1.9,8.1,0.5,10-3.1l2.3-4.6c1.9-3.6,0.5-8.1-3.1-10l-16.7-8.6c-3.6-1.9-5.1-6.4-3.1-10l2.3-4.3c1.9-3.6,6.4-5.1,10-3.1
				l27.1,14.1c3.6,1.9,8.1,0.5,10-3.1l2.3-4.6c1.9-3.6,0.5-8.1-3.1-10l-10.5-5.5c-3.6-1.9-5.1-6.4-3.1-10l2.3-4.6
				c1.9-3.6,6.4-5.1,10-3.1l0,0C164,199.2,168.5,197.8,170.4,194.2z"/>
		</g>
	</g>
	<g>
		<defs>
			<circle id="SVGID_11_" cx="207.7" cy="218.6" r="70.9"/>
		</defs>
		<clipPath id="SVGID_12_">
			<use xlink:href="#SVGID_11_"  style="overflow:visible;"/>
		</clipPath>
		<g class="st16">
			<path class="st17" d="M120.4,165l2.3-4.6c1.9-3.6,6.4-5.1,10-3.1l4.7,2.4c3.6,1.9,8.1,0.5,10-3.1l2.3-4.6c1.9-3.6,0.5-8.1-3.1-10
				l-31.7-16.5c-3.6-1.9-5.1-6.4-3.1-10l2.3-4.6c1.9-3.6,6.4-5.1,10-3.1L138,115c3.6,1.9,8.1,0.5,10-3.1l2.3-4.6
				c1.9-3.6,0.5-8.1-3.1-10l-106.1-55c-3.6-1.9-8.1-0.5-10,3.1l-2.3,4.6c-1.9,3.6-0.5,8.1,3.1,10l13,6.8c3.6,1.9,5.1,6.4,3.1,10
				l-2.3,4.6c-1.9,3.6-6.4,5.1-10,3.1l-1.1-0.6c-3.6-1.9-8.1-0.5-10,3.1l-2.3,4.6c-1.9,3.6-0.5,8.1,3.1,10l23,12
				c3.6,1.9,5.1,6.4,3.1,10l-2.3,4.6c-1.9,3.6-6.4,5.1-10,3.1l-12.6-6.5c-3.6-1.9-8.1-0.5-10,3.1l-2.3,4.6c-1.9,3.6-6.4,5.1-10,3.1
				l-9.3-4.8c-3.6-1.9-8.1-0.5-10,3.1l-2.3,4.6c-1.9,3.6-6.4,5.1-10,3.1l-1.1-0.6c-3.6-1.9-8.1-0.5-10,3.1l-2.3,4.6
				c-1.9,3.6-0.5,8.1,3.1,10l14,7.2c3.6,1.9,5.1,6.4,3.1,10l-2.3,4.3c-1.9,3.6-0.5,8.1,3.1,10l93.2,48.3c3.6,1.9,8.1,0.5,10-3.1
				l2.3-4.6c1.9-3.6,0.5-8.1-3.1-10l-16.7-8.6c-3.6-1.9-5.1-6.4-3.1-10l2.3-4.3c1.9-3.6,6.4-5.1,10-3.1l27.1,14.1
				c3.6,1.9,8.1,0.5,10-3.1l2.3-4.6c1.9-3.6,0.5-8.1-3.1-10l-10.5-5.5c-3.6-1.9-5.1-6.4-3.1-10l2.3-4.6c1.9-3.6,6.4-5.1,10-3.1l0,0
				C114.1,170.1,118.5,168.6,120.4,165z"/>
		</g>
	</g>
</g>
<g id="planet_2">
	<g>
		<g>
			<defs>
				<circle id="SVGID_13_" cx="1682.4" cy="200.1" r="40.7"/>
			</defs>
			<clipPath id="SVGID_14_">
				<use xlink:href="#SVGID_13_"  style="overflow:visible;"/>
			</clipPath>
			<g class="st18">
				<path class="st19" d="M1739.4,224l1.2-2.7c1-2.1,3.5-3.1,5.6-2.1l2.8,1.3c2.1,1,4.7,0,5.6-2.1l1.2-2.7c1-2.1,0-4.7-2.1-5.6
					l-18.7-8.5c-2.1-1-3.1-3.5-2.1-5.6l1.2-2.7c1-2.1,3.5-3.1,5.6-2.1l8.2,3.7c2.1,1,4.7,0,5.6-2.1l1.2-2.7c1-2.1,0-4.7-2.1-5.6
					l-62.5-28.4c-2.1-1-4.7,0-5.6,2.1l-1.2,2.7c-1,2.1,0,4.7,2.1,5.6l7.7,3.5c2.1,1,3.1,3.5,2.1,5.6l-1.2,2.7
					c-1,2.1-3.5,3.1-5.6,2.1l-0.7-0.3c-2.1-1-4.7,0-5.6,2.1l-1.2,2.7c-1,2.1,0,4.7,2.1,5.6l13.6,6.2c2.1,1,3.1,3.5,2.1,5.6l-1.2,2.7
					c-1,2.1-3.5,3.1-5.6,2.1l-7.4-3.4c-2.1-1-4.7,0-5.6,2.1l-1.2,2.7c-1,2.1-3.5,3.1-5.6,2.1l-5.5-2.5c-2.1-1-4.7,0-5.6,2.1
					l-1.2,2.7c-1,2.1-3.5,3.1-5.6,2.1l-0.7-0.3c-2.1-1-4.7,0-5.6,2.1l-1.2,2.7c-1,2.1,0,4.7,2.1,5.6l8.3,3.8c2.1,1,3.1,3.5,2.1,5.6
					l-1.2,2.6c-1,2.1,0,4.7,2.1,5.6l54.9,24.9c2.1,1,4.7,0,5.6-2.1l1.2-2.7c1-2.1,0-4.7-2.1-5.6l-9.8-4.5c-2.1-1-3.1-3.5-2.1-5.6
					l1.2-2.6c1-2.1,3.5-3.1,5.6-2.1l16,7.3c2.1,1,4.7,0,5.6-2.1l1.2-2.7c1-2.1,0-4.7-2.1-5.6l-6.2-2.8c-2.1-1-3.1-3.5-2.1-5.6
					l1.2-2.7c1-2.1,3.5-3.1,5.6-2.1l0,0C1735.9,227.1,1738.5,226.1,1739.4,224z"/>
			</g>
		</g>
		<g>
			<defs>
				<circle id="SVGID_15_" cx="1682.4" cy="200.1" r="40.7"/>
			</defs>
			<clipPath id="SVGID_16_">
				<use xlink:href="#SVGID_15_"  style="overflow:visible;"/>
			</clipPath>
			<g class="st20">
				<path class="st21" d="M1718.2,211.7l1.2-2.7c1-2.1,3.5-3.1,5.6-2.1l2.8,1.3c2.1,1,4.7,0,5.6-2.1l1.2-2.7c1-2.1,0-4.7-2.1-5.6
					l-18.7-8.5c-2.1-1-3.1-3.5-2.1-5.6l1.2-2.7c1-2.1,3.5-3.1,5.6-2.1l8.2,3.7c2.1,1,4.7,0,5.6-2.1l1.2-2.7c1-2.1,0-4.7-2.1-5.6
					l-62.3-28.6c-2.1-1-4.7,0-5.6,2.1l-1.2,2.7c-1,2.1,0,4.7,2.1,5.6l7.7,3.5c2.1,1,3.1,3.5,2.1,5.6l-1.2,2.7
					c-1,2.1-3.5,3.1-5.6,2.1l-0.7-0.3c-2.1-1-4.7,0-5.6,2.1l-1.2,2.7c-1,2.1,0,4.7,2.1,5.6l13.6,6.2c2.1,1,3.1,3.5,2.1,5.6l-1.2,2.7
					c-1,2.1-3.5,3.1-5.6,2.1l-7.4-3.4c-2.1-1-4.7,0-5.6,2.1l-1.2,2.7c-1,2.1-3.5,3.1-5.6,2.1l-5.5-2.5c-2.1-1-4.7,0-5.6,2.1
					l-1.2,2.7c-1,2.1-3.5,3.1-5.6,2.1l-0.7-0.3c-2.1-1-4.7,0-5.6,2.1l-1.2,2.7c-1,2.1,0,4.7,2.1,5.6l8.3,3.8c2.1,1,3.1,3.5,2.1,5.6
					l-1.2,2.6c-1,2.1,0,4.7,2.1,5.6l54.9,24.9c2.1,1,4.7,0,5.6-2.1l1.2-2.7c1-2.1,0-4.7-2.1-5.6l-9.8-4.5c-2.1-1-3.1-3.5-2.1-5.6
					l1.2-2.6c1-2.1,3.5-3.1,5.6-2.1l16,7.3c2.1,1,4.7,0,5.6-2.1l1.2-2.7c1-2.1,0-4.7-2.1-5.6l-6.2-2.8c-2.1-1-3.1-3.5-2.1-5.6
					l1.2-2.7c1-2.1,3.5-3.1,5.6-2.1l0,0C1714.7,214.8,1717.3,213.8,1718.2,211.7z"/>
			</g>
		</g>
		<g>
			<defs>
				<circle id="SVGID_17_" cx="1682.4" cy="200.1" r="40.7"/>
			</defs>
			<clipPath id="SVGID_18_">
				<use xlink:href="#SVGID_17_"  style="overflow:visible;"/>
			</clipPath>
			<g class="st22">
				<path class="st19" d="M1686,206.3l-1.2,2.7c-1,2.1,0,4.7,2.1,5.6l2.8,1.3c2.1,1,3.1,3.5,2.1,5.6l-1.2,2.7
					c-1,2.1-3.5,3.1-5.6,2.1l-18.7-8.5c-2.1-1-4.7,0-5.6,2.1l-1.2,2.7c-1,2.1,0,4.7,2.1,5.6l8.2,3.7c2.1,1,3.1,3.5,2.1,5.6l-1.2,2.7
					c-1,2.1-3.5,3.1-5.6,2.1l-62.5-28.4c-2.1-1-3.1-3.5-2.1-5.6l1.2-2.7c1-2.1,3.5-3.1,5.6-2.1l7.7,3.5c2.1,1,4.7,0,5.6-2.1l1.2-2.7
					c1-2.1,0-4.7-2.1-5.6l-0.7-0.3c-2.1-1-3.1-3.5-2.1-5.6l1.2-2.7c1-2.1,3.5-3.1,5.6-2.1l13.6,6.2c2.1,1,4.7,0,5.6-2.1l1.2-2.7
					c1-2.1,0-4.7-2.1-5.6l-7.4-3.4c-2.1-1-3.1-3.5-2.1-5.6l1.2-2.7c1-2.1,0-4.7-2.1-5.6l-5.5-2.6c-2.1-1-3.1-3.5-2.1-5.6l1.2-2.7
					c1-2.1,0-4.7-2.1-5.6l-0.7-0.3c-2.1-1-3.1-3.5-2.1-5.6l1.2-2.7c1-2.1,3.5-3.1,5.6-2.1l8.3,3.8c2.1,1,4.7,0,5.6-2.1l1.2-2.6
					c1-2.1,3.5-3.1,5.6-2.1l54.9,24.9c2.1,1,3.1,3.5,2.1,5.6l-1.2,2.7c-1,2.1-3.5,3.1-5.6,2.1l-9.8-4.5c-2.1-1-4.7,0-5.6,2.1
					l-1.2,2.6c-1,2.1,0,4.7,2.1,5.6l16,7.3c2.1,1,3.1,3.5,2.1,5.6l-1.2,2.7c-1,2.1-3.5,3.1-5.6,2.1l-6.2-2.8c-2.1-1-4.7,0-5.6,2.1
					l-1.2,2.7c-1,2.1,0,4.7,2.1,5.6l0,0C1686.1,201.6,1687,204.1,1686,206.3z"/>
			</g>
		</g>
		<g>
			<defs>
				<circle id="SVGID_19_" cx="1682.4" cy="200.1" r="40.7"/>
			</defs>
			<clipPath id="SVGID_20_">
				<use xlink:href="#SVGID_19_"  style="overflow:visible;"/>
			</clipPath>
			<g class="st23">
				<path class="st21" d="M1663.2,194.5l1.2-2.7c1-2.1,3.5-3.1,5.6-2.1l2.8,1.3c2.1,1,4.7,0,5.6-2.1l1.2-2.7c1-2.1,0-4.7-2.1-5.6
					l-18.7-8.5c-2.1-1-3.1-3.5-2.1-5.6l1.2-2.7c1-2.1,3.5-3.1,5.6-2.1l8.2,3.7c2.1,1,4.7,0,5.6-2.1l1.2-2.7c1-2.1,0-4.7-2.1-5.6
					l-62.5-28.4c-2.1-1-4.7,0-5.6,2.1l-1.2,2.7c-1,2.1,0,4.7,2.1,5.6l7.7,3.5c2.1,1,3.1,3.5,2.1,5.6l-1.2,2.7
					c-1,2.1-3.5,3.1-5.6,2.1l-0.7-0.3c-2.1-1-4.7,0-5.6,2.1l-1.2,2.7c-1,2.1,0,4.7,2.1,5.6l13.6,6.2c2.1,1,3.1,3.5,2.1,5.6l-1.2,2.7
					c-1,2.1-3.5,3.1-5.6,2.1l-7.4-3.4c-2.1-1-4.7,0-5.6,2.1l-1.2,2.7c-1,2.1-3.5,3.1-5.6,2.1l-5.5-2.5c-2.1-1-4.7,0-5.6,2.1
					l-1.2,2.7c-1,2.1-3.5,3.1-5.6,2.1l-0.7-0.3c-2.1-1-4.7,0-5.6,2.1l-1.2,2.7c-1,2.1,0,4.7,2.1,5.6l8.3,3.8c2.1,1,3.1,3.5,2.1,5.6
					l-1.2,2.6c-1,2.1,0,4.7,2.1,5.6l54.9,24.9c2.1,1,4.7,0,5.6-2.1l1.2-2.7c1-2.1,0-4.7-2.1-5.6l-9.8-4.5c-2.1-1-3.1-3.5-2.1-5.6
					l1.2-2.6c1-2.1,3.5-3.1,5.6-2.1l16,7.3c2.1,1,4.7,0,5.6-2.1l1.2-2.7c1-2.1,0-4.7-2.1-5.6l-6.2-2.8c-2.1-1-3.1-3.5-2.1-5.6
					l1.2-2.7c1-2.1,3.5-3.1,5.6-2.1l0,0C1659.7,197.6,1662.2,196.7,1663.2,194.5z"/>
			</g>
		</g>
	</g>
	<path class="st24" d="M1654.5,170.3c-22.3-11.3-39.3-16.2-42.5-11.2c-4.7,7.3,21.9,32.9,59.5,57.3c37.6,24.4,71.9,38.2,76.6,31
		c3.2-4.9-8-18.3-27.3-34l-1.9,4.6c9.2,8.6,14.1,15.4,12.2,18.3c-3.5,5.4-29.3-5-57.4-23.2c-28.2-18.3-48.2-37.5-44.7-43
		c1.9-2.9,10.3-1.3,22,3.8L1654.5,170.3z"/>
</g>
<g id="planet_3">
	<g>
		<ellipse id="SVGID_26_" class="st25" cx="1593.2" cy="236.5" rx="18.7" ry="18.7"/>
	</g>
	<g>
		<defs>
			<circle id="SVGID_21_" cx="1593.2" cy="236.5" r="18.7"/>
		</defs>
		<clipPath id="SVGID_23_">
			<use xlink:href="#SVGID_21_"  style="overflow:visible;"/>
		</clipPath>
		<g class="st26">
			<path class="st27" d="M1550.2,232.5l-0.9,1.7c-0.7,1.4-2.3,1.9-3.7,1.2l-1.7-0.9c-1.4-0.7-3-0.1-3.7,1.2l-0.9,1.7
				c-0.7,1.4-0.1,3,1.2,3.7l11.8,5.9c1.4,0.7,1.9,2.3,1.2,3.7l-0.9,1.7c-0.7,1.4-2.3,1.9-3.7,1.2l-5.2-2.6c-1.4-0.7-3-0.1-3.7,1.2
				l-0.9,1.7c-0.7,1.4-0.1,3,1.2,3.7l39.6,19.8c1.4,0.7,3,0.1,3.7-1.2l0.9-1.7c0.7-1.4,0.1-3-1.2-3.7l-4.8-2.4
				c-1.4-0.7-1.9-2.3-1.2-3.7l0.9-1.7c0.7-1.4,2.3-1.9,3.7-1.2l0.4,0.2c1.4,0.7,3,0.1,3.7-1.2l0.9-1.7c0.7-1.4,0.1-3-1.2-3.7
				l-8.6-4.3c-1.4-0.7-1.9-2.3-1.2-3.7l0.9-1.7c0.7-1.4,2.3-1.9,3.7-1.2l4.7,2.3c1.4,0.7,3,0.1,3.7-1.2l0.9-1.7
				c0.7-1.4,2.3-1.9,3.7-1.2l3.5,1.7c1.4,0.7,3,0.1,3.7-1.2l0.9-1.7c0.7-1.4,2.3-1.9,3.7-1.2l0.4,0.2c1.4,0.7,3,0.1,3.7-1.2l0.9-1.7
				c0.7-1.4,0.1-3-1.2-3.7l-5.2-2.6c-1.4-0.7-1.9-2.3-1.2-3.7l0.8-1.6c0.7-1.4,0.1-3-1.2-3.7l-35.2-17.4c-1.4-0.7-3-0.1-3.7,1.2
				l-0.9,1.7c-0.7,1.4-0.1,3,1.2,3.7l6.2,3.1c1.4,0.7,1.9,2.3,1.2,3.7l-0.8,1.6c-0.7,1.4-2.3,1.9-3.7,1.2l-10.1-5.1
				c-1.4-0.7-3-0.1-3.7,1.2l-0.9,1.7c-0.7,1.4-0.1,3,1.2,3.7l3.9,2c1.4,0.7,1.9,2.3,1.2,3.7l-0.9,1.7c-0.7,1.4-2.3,1.9-3.7,1.2l0,0
				C1552.5,230.6,1550.9,231.2,1550.2,232.5z"/>
		</g>
	</g>
</g>
<g id="rocket_ship_1_">
	<g id="rocket_ship">
		<g>
			<g>
				<g>
					<defs>
						<path id="SVGID_24_" d="M1353.3,210.5c5.8,3,11.6,6,17.5,9c-3.2,5.7-7.4,14.3-9.6,24.7c-1.7,7.8-1.7,13.9-1.7,15.2
							c0,1.1,0.1,5.8,0.6,8.9c2.9,16.2,25.9,29.1,32.3,39.2c0.8,1.3,2.1,3.6,2.7,6.7c0.6,2.7,0.4,5,0.2,6.3
							c-0.8,8.2-6.8,19.3-7.6,20.8c-34.6-9.9-69.1-19.7-103.6-29.5c-24.3-9.5-48.6-19.1-72.9-28.6c6.2-7.5,16.5-17.1,29.8-17.5
							c0.6-0.1,1.4-0.1,2.1,0c14.6-0.7,29.1-1.4,43.6-2.1c5.9-11.9,22.1-40.2,53.3-50.1C1344.4,212,1348.9,211.1,1353.3,210.5z"/>
					</defs>
					<clipPath id="SVGID_25_">
						<use xlink:href="#SVGID_24_"  style="overflow:visible;"/>
					</clipPath>
					<ellipse class="st28" cx="1314.8" cy="269.3" rx="115.1" ry="102.4"/>
				</g>
			</g>
			<g>
				<g>
					<defs>
						<path id="SVGID_27_" d="M1353.3,210.5c5.8,3,11.6,6,17.5,9c-3.2,5.7-7.4,14.3-9.6,24.7c-1.7,7.8-1.7,13.9-1.7,15.2
							c0,1.1,0.1,5.8,0.6,8.9c2.9,16.2,25.9,29.1,32.3,39.2c0.8,1.3,2.1,3.6,2.7,6.7c0.6,2.7,0.4,5,0.2,6.3
							c-0.8,8.2-6.8,19.3-7.6,20.8c-34.6-9.9-69.1-19.7-103.6-29.5c-24.3-9.5-48.6-19.1-72.9-28.6c6.2-7.5,16.5-17.1,29.8-17.5
							c0.6-0.1,1.4-0.1,2.1,0c14.6-0.7,29.1-1.4,43.6-2.1c5.9-11.9,22.1-40.2,53.3-50.1C1344.4,212,1348.9,211.1,1353.3,210.5z"/>
					</defs>
					<clipPath id="SVGID_28_">
						<use xlink:href="#SVGID_27_"  style="overflow:visible;"/>
					</clipPath>
					<path class="st29" d="M1404.3,347c-31.2-25.2-62.5-50.3-93.7-75.5c-45.7,4.2-91.5,8.5-137.3,12.7c77,26.6,154,53,231,79.6V347
						L1404.3,347z"/>
				</g>
			</g>
		</g>
		<g>
			<g>
				<g>
					<defs>
						<path id="SVGID_29_" d="M1370.7,219.6c-17.3,24.2-34.5,48.4-51.8,72.6c-2.3,3.3-16.7,22.5-39.9,23.3
							c-3.9,0.1-20.6,0.8-27.5-9.7c-6.9-10.5-2-29.8,14.9-44.1c23.8-20.3,47.6-40.6,71.2-60.9c1.7-1.8,4.9-4.6,9.5-6.5
							c1.7-0.6,11.7-4.6,19,0.5C1372.4,199.2,1374.8,209.6,1370.7,219.6z"/>
					</defs>
					<clipPath id="SVGID_30_">
						<use xlink:href="#SVGID_29_"  style="overflow:visible;"/>
					</clipPath>
					<ellipse class="st30" cx="1305" cy="244.5" rx="86.2" ry="96.8"/>
				</g>
			</g>
		</g>
		
			<ellipse transform="matrix(0.6488 -0.7609 0.7609 0.6488 219.4275 1069.6296)" class="st31" cx="1268.6" cy="297.1" rx="14.5" ry="18.3"/>
		<g>
			<g>
				<g>
					<defs>
						<path id="SVGID_31_" d="M1271.1,293.5c4.9,3.6,3.5,11.5,1.1,24.2c-2.6,14-7.8,20.3-10.7,23.2c-2.2,2.2-3.8,3.7-6.6,4.9
							c-10.6,4.3-22.6-4.6-24.4-6c-7.7-5.7-9.9-12.8-10.8-15.4c-1.6-5.3-0.8-8.4-0.6-9.3c0.9-3.5,3-6,4.3-7.3
							c4.6-3,11.9-7.4,21.9-10.9C1256.4,293.1,1265.9,289.7,1271.1,293.5z"/>
					</defs>
					<clipPath id="SVGID_32_">
						<use xlink:href="#SVGID_31_"  style="overflow:visible;"/>
					</clipPath>
					<circle class="st32" cx="1245.1" cy="322.5" r="40.5"/>
				</g>
			</g>
			<g>
				<g>
					<defs>
						<path id="SVGID_33_" d="M1271.1,293.5c4.9,3.6,3.5,11.5,1.1,24.2c-2.6,14-7.8,20.3-10.7,23.2c-2.2,2.2-3.8,3.7-6.6,4.9
							c-10.6,4.3-22.6-4.6-24.4-6c-7.7-5.7-9.9-12.8-10.8-15.4c-1.6-5.3-0.8-8.4-0.6-9.3c0.9-3.5,3-6,4.3-7.3
							c4.6-3,11.9-7.4,21.9-10.9C1256.4,293.1,1265.9,289.7,1271.1,293.5z"/>
					</defs>
					<clipPath id="SVGID_34_">
						<use xlink:href="#SVGID_33_"  style="overflow:visible;"/>
					</clipPath>
					<path class="st33" d="M1261.7,339.7c-5.3,10.5-21.8,17-34.4,10.1c-13.3-7.3-16.5-26-9.2-36.5c4.7-6.8,12.8-8.3,14.6-8.6
						c14.2-2.1,29,10.1,30.8,23.5C1263.7,329.8,1264.2,334.6,1261.7,339.7z"/>
				</g>
			</g>
		</g>
		
			<ellipse transform="matrix(0.6269 -0.7791 0.7791 0.6269 208.4622 1088.5371)" class="st31" cx="1240.8" cy="326.6" rx="12.5" ry="18.6"/>
		<g>
			<g>
				<g>
					<defs>
						<path id="SVGID_35_" d="M1288.3,251c-8.1,8.2-16.1,16.5-24.2,24.7c-0.5-2-0.9-3.9-1.5-5.9c0-0.1-0.2-0.8-0.8-1.2
							c-0.5-0.3-0.9-0.2-1.1-0.2c-2.7,0.4-5.5,0.8-8.2,1.2c-1.1,0.2-2.1,0.2-3-0.4c-0.2-0.2-0.4-0.3-0.4-0.4
							c-5.2-4.6-43.5-39-45.2-41.1c-0.9-1.1-0.8-2-0.8-2c0.1-0.6,0.6-1.1,0.8-1.2c11.8-6.4,20.5-11.1,22-11.8
							c1.2-0.5,2.3-0.6,2.6-0.6c0.7-0.1,1.3,0.1,1.8,0.2c26.7,11.3,46,20.9,51.2,24.6c1.2,0.9,4,3,5.7,6.8
							C1288.2,246.6,1288.3,249.2,1288.3,251z"/>
					</defs>
					<clipPath id="SVGID_36_">
						<use xlink:href="#SVGID_35_"  style="overflow:visible;"/>
					</clipPath>
					<ellipse class="st34" cx="1242.3" cy="241.5" rx="62.5" ry="43.5"/>
				</g>
			</g>
			<g>
				<g>
					<defs>
						<path id="SVGID_37_" d="M1288.3,251c-8.1,8.2-16.1,16.5-24.2,24.7c-0.5-2-0.9-3.9-1.5-5.9c0-0.1-0.2-0.8-0.8-1.2
							c-0.5-0.3-0.9-0.2-1.1-0.2c-2.7,0.4-5.5,0.8-8.2,1.2c-1.1,0.2-2.1,0.2-3-0.4c-0.2-0.2-0.4-0.3-0.4-0.4
							c-5.2-4.6-43.5-39-45.2-41.1c-0.9-1.1-0.8-2-0.8-2c0.1-0.6,0.6-1.1,0.8-1.2c11.8-6.4,20.5-11.1,22-11.8
							c1.2-0.5,2.3-0.6,2.6-0.6c0.7-0.1,1.3,0.1,1.8,0.2c26.7,11.3,46,20.9,51.2,24.6c1.2,0.9,4,3,5.7,6.8
							C1288.2,246.6,1288.3,249.2,1288.3,251z"/>
					</defs>
					<clipPath id="SVGID_38_">
						<use xlink:href="#SVGID_37_"  style="overflow:visible;"/>
					</clipPath>
					<path class="st35" d="M1193.4,215c19.8,16.3,39.5,32.6,59.2,48.9c4.6-0.8,9.1-1.5,13.7-2.2c1.1,5.6,2.3,11.1,3.4,16.7
						c-2.3,2.2-4.7,4.4-7.1,6.6l-78.9-48.7C1186.9,229.2,1190.2,222.1,1193.4,215z"/>
				</g>
			</g>
		</g>
		<g>
			<g>
				<g>
					<defs>
						<path id="SVGID_39_" d="M1367.8,204.9c-0.2-0.2-0.6-0.1-0.9,0c-0.2,0.1-0.7,0.2-1.2,0.7c-26.7,30.2-45.8,51.8-47.8,54
							c-0.2,0.3-0.9,1-1.5,2.1c-1.2,2.2-1.1,4.6-1.2,5.2c0,0.2,0,0.6,0,1.7c0,1.5,0,1.5,0,1.8c0.1,1.2,0.1,2.5,0.7,2.7
							c0.8,0.4,2.3-1.5,2.6-1.9c2.6-3.2,21.4-25.7,47.5-56.9c0.4-0.4,0.9-1.1,1.4-2.1c0.4-0.9,0.5-1.8,0.5-2.3c0-0.2,0.2-3,0.2-4.4
							C1368.1,205.4,1368.1,205.1,1367.8,204.9z"/>
					</defs>
					<clipPath id="SVGID_40_">
						<use xlink:href="#SVGID_39_"  style="overflow:visible;"/>
					</clipPath>
					<ellipse class="st36" cx="1343.8" cy="247.6" rx="48.7" ry="58.9"/>
				</g>
			</g>
		</g>
		<path class="st37" d="M1263.5,272.7"/>
		<path class="st38" d="M1281.4,318.8"/>
	</g>
	<g id="blast">
		<path class="st39" d="M947.6,656l15.8,13.4c10.2,8.7,25.6,7.4,34.3-2.8L1253,366.1c1.8-2.3,6.6-9,5.7-17.7c-0.6-6.6-4-11-8.5-16.6
			c-2.9-3.6-7.9-9-15.8-13.4c-6.3-3.5-11.1-6.2-17.7-5.7c-8.8,0.6-14.6,6.4-16.6,8.5L944.8,621.6C936.1,631.9,937.3,647.3,947.6,656
			z"/>
		<circle class="st40" cx="1218.9" cy="352.7" r="29"/>
		<g>
			<path class="st40" d="M1172.7,362.4c-0.6,0.8-3,3.5-5.2,6.1l-47.8,56.3c-2.2,2.6-2.5,6.1-0.6,7.7c1.9,1.6,5.3,0.8,7.5-1.8
				l37.7-44.4c2.2-2.6,5.3-3.7,7-2.3c1.6,1.3,1.1,4.6-1.2,7.2l-18.1,21.3c-2.2,2.6-2.4,6.2-0.4,7.8c2,1.7,5.5,0.9,7.7-1.7l23.3-27.4
				c2.2-2.6,6-3.2,8.2-1.2c2.3,2,2.3,5.7,0.1,8.3l-5.3,6.2c-2.2,2.6-2.2,6.4,0.1,8.3c2.3,1.9,2.3,5.7,0.1,8.3l-22.7,26.8
				c-2.2,2.6-2.4,6.2-0.4,7.9c2,1.7,5.5,0.9,7.7-1.6l43.2-50.8c2.2-2.6,1.9-6.6-0.7-8.8l-34.5-29.4
				C1175.9,362.9,1173.2,361.7,1172.7,362.4z"/>
		</g>
		<polygon class="st40" points="1196.8,333.9 1169.4,366.2 1212.9,404.3 1240.9,371.4 		"/>
	</g>
	<polygon class="st41" points="907.9,470.9 1034.7,551.3 1097.6,684.2 907.9,684.2 	"/>
</g>
<g>
	<defs>
		<rect id="dark_sky_1_" x="0" y="-0.5" width="1920.1" height="3592.5"/>
	</defs>
	<clipPath id="dark_sky_2_">
		<use xlink:href="#dark_sky_1_"  style="overflow:visible;"/>
	</clipPath>
	<linearGradient id="SVGID_41_" gradientUnits="userSpaceOnUse" x1="960.057" y1="2766.9246" x2="960.057" y2="-1718.6583">
		<stop  offset="0.1682" style="stop-color:#6400A0"/>
		<stop  offset="0.2351" style="stop-color:#61009B;stop-opacity:0.8649"/>
		<stop  offset="0.3153" style="stop-color:#58008C;stop-opacity:0.7031"/>
		<stop  offset="0.4023" style="stop-color:#490074;stop-opacity:0.5275"/>
		<stop  offset="0.4941" style="stop-color:#330052;stop-opacity:0.3422"/>
		<stop  offset="0.5887" style="stop-color:#190027;stop-opacity:0.1513"/>
		<stop  offset="0.6636" style="stop-color:#000000;stop-opacity:0"/>
	</linearGradient>
	<rect x="-960.1" y="-244" class="st42" width="3840.2" height="7280.8"/>
</g>
</svg>
